<svg id="Layer_1" data-name="Layer 1" xmlns="http://www.w3.org/2000/svg" viewBox="0 0 450 300"><rect x="294.29" y="43.75" width="60.07" height="41.3" fill="#ffd200"/><path d="M316.25,72.51a1.41,1.41,0,0,1-.86-.3l-9-7.12a1.35,1.35,0,0,1-.53-1.08,1.38,1.38,0,0,1,.52-1.09l9-7.25a1.39,1.39,0,1,1,1.75,2.17L309.48,64l7.64,6a1.39,1.39,0,0,1-.87,2.48Z" fill="#fff"/><path d="M332.56,72.51A1.39,1.39,0,0,1,331.7,70l7.63-6-7.64-6.15a1.39,1.39,0,1,1,1.74-2.17l9,7.25A1.34,1.34,0,0,1,343,64a1.37,1.37,0,0,1-.52,1.08l-9,7.12A1.41,1.41,0,0,1,332.56,72.51Z" fill="#fff"/><path d="M320.63,72.51a1.33,1.33,0,0,1-.58-.13,1.39,1.39,0,0,1-.69-1.84l6.56-14.37a1.4,1.4,0,0,1,1.85-.68,1.38,1.38,0,0,1,.68,1.84L321.89,71.7A1.39,1.39,0,0,1,320.63,72.51Z" fill="#fff"/><rect x="62.8" y="40.58" width="67.91" height="113.64" fill="#24285b"/><rect x="148.7" y="41" width="125.79" height="87.59" fill="#e6e6e6"/><rect x="148.7" y="128.58" width="125.79" height="86" fill="#e6e6e6"/><rect x="162.44" y="142.41" width="99.51" height="40.84" fill="#c9c9c9"/><rect x="191.75" y="188.32" width="39.54" height="18.94" fill="#c9c9c9"/><rect x="156.91" y="49.14" width="109.25" height="69.02" fill="#24285b"/><rect x="188.83" y="97.08" width="35.09" height="3.93" fill="#68e1fd"/><rect x="198.9" y="86.14" width="31.37" height="3.93" fill="#ffd200"/><rect x="198.9" y="106.57" width="41.82" height="3.93" fill="#68e1fd"/><rect x="175.81" y="106.57" width="15.73" height="3.93" fill="#fff"/><rect x="165.75" y="97.08" width="15.73" height="3.93" fill="#fff"/><circle cx="164.06" cy="55.76" r="1.85" fill="#fff"/><path d="M188.83,150.23s13.06-2.72,10.07,9.88,7,10.89,5.06,20.76-15.13,33.71-15.13,33.71H164.06l12.6-46.43Z" opacity="0.08"/><circle cx="169.56" cy="55.76" r="1.85" fill="#68e1fd"/><path d="M248.67,154.94s12.24-5.64,17.48,5.08,8.34,13.49,8.34,13.49v33.75l-26.84-20.17Z" opacity="0.08"/><circle cx="174.75" cy="55.76" r="1.85" fill="#ffd200"/><rect x="165.75" y="67.21" width="15.73" height="3.93" fill="#fff"/><rect x="175.81" y="77.03" width="15.73" height="3.93" fill="#fff"/><rect x="198.9" y="77.03" width="31.37" height="3.93" fill="#ffd200"/><rect x="175.81" y="86.14" width="15.73" height="3.93" fill="#fff"/><rect x="187.76" y="67.21" width="32.4" height="3.93" fill="#68e1fd"/><rect x="226.94" y="67.21" width="23" height="3.93" fill="#68e1fd"/><path d="M247.65,194.74s-16.59-4.08-15.32-14,12-4.34,12-4.34-2.81-13.51-6.89-17.35,4.59-10.44,11.23-4.07,7.92,1.26,13.28,7.89,5.36,25.49,5.36,25.49Z" fill="#f4a28c"/><polygon points="247.65 194.75 261.95 251.43 293.1 239.17 267.31 188.32 247.65 194.75" fill="#68e1fd"/><path d="M178.8,189.38s16.59-4.09,15.32-14-12-4.34-12-4.34,2.8-13.5,6.89-17.35-4.6-10.43-11.24-4.07-7.91,1.26-13.27,7.9S159.14,183,159.14,183Z" fill="#f4a28c"/><polygon points="178.8 189.38 164.5 246.06 133.35 233.8 159.14 182.95 178.8 189.38" fill="#68e1fd"/><polyline points="83.74 75.36 108.66 75.36 108.66 116.72" fill="none" stroke="#fff" stroke-miterlimit="10"/><rect x="73.01" y="50.49" width="32.94" height="5.27" fill="#ffd200"/><rect x="75.06" y="69.97" width="17.36" height="10.78" fill="#68e1fd"/><line x1="83.74" y1="116.72" x2="108.37" y2="116.72" fill="none" stroke="#fff" stroke-miterlimit="10"/><rect x="99.98" y="91.16" width="17.36" height="10.78" fill="#68e1fd"/><rect x="75.06" y="111.33" width="17.36" height="10.78" fill="#68e1fd"/><rect x="99.69" y="111.33" width="17.36" height="10.78" fill="#68e1fd"/><rect x="75.06" y="136.53" width="42" height="7.66" fill="#fff" opacity="0.1"/><rect x="294.08" y="103.91" width="69.87" height="40.41" fill="#e6e6e6"/><circle cx="306.02" cy="116.76" r="4.06" fill="#24285b"/><circle cx="306.02" cy="130.89" r="4.06" fill="#68e1fd"/><rect x="315.4" y="113.99" width="36.61" height="4.94" fill="#c9c9c9"/><rect x="315.4" y="128.28" width="36.61" height="4.94" fill="#c9c9c9"/></svg>